<svg width="958" height="145" viewBox="0 0 958 145" fill="none" xmlns="http://www.w3.org/2000/svg">
<g clip-path="url(#clip0_1_2)">
<path d="M22.8196 111.298C18.4347 111.298 14.527 110.537 11.0966 109.016C7.66619 107.464 4.9517 105.183 2.95312 102.17C0.984375 99.1271 0 95.3388 0 90.8047C0 86.9865 0.700994 83.7798 2.10298 81.1847C3.50497 78.5895 5.41406 76.5014 7.83026 74.9205C10.2464 73.3395 12.9908 72.1463 16.0632 71.3409C19.1655 70.5355 22.4169 69.9688 25.8175 69.6406C29.8146 69.223 33.0362 68.8352 35.4822 68.4773C37.9283 68.0895 39.7031 67.5227 40.8068 66.777C41.9105 66.0312 42.4624 64.9276 42.4624 63.4659V63.1974C42.4624 60.3636 41.5675 58.1712 39.7777 56.62C38.0178 55.0689 35.5121 54.2933 32.2607 54.2933C28.8303 54.2933 26.1009 55.054 24.0724 56.5753C22.044 58.0668 20.7017 59.946 20.0455 62.2131L2.41619 60.7812C3.31108 56.6051 5.07102 52.9957 7.69602 49.9531C10.321 46.8807 13.7067 44.5241 17.853 42.8835C22.0291 41.2131 26.8615 40.3778 32.3501 40.3778C36.1683 40.3778 39.8224 40.8253 43.3125 41.7202C46.8324 42.6151 49.9496 44.0021 52.6641 45.8814C55.4084 47.7607 57.571 50.1768 59.152 53.13C60.733 56.0533 61.5234 59.5582 61.5234 63.6449V110H43.4467V100.469H42.9098C41.8061 102.617 40.3295 104.511 38.4801 106.152C36.6307 107.763 34.4084 109.031 31.8132 109.955C29.218 110.85 26.2202 111.298 22.8196 111.298ZM28.2784 98.1428C31.0824 98.1428 33.5582 97.5909 35.706 96.4872C37.8537 95.3537 39.5391 93.8324 40.7621 91.9233C41.9851 90.0142 42.5966 87.8516 42.5966 85.4354V78.142C42 78.5298 41.1797 78.8878 40.1357 79.2159C39.1215 79.5142 37.973 79.7976 36.6903 80.066C35.4077 80.3047 34.125 80.5284 32.8423 80.7372C31.5597 80.9162 30.3963 81.0803 29.3523 81.2294C27.1151 81.5575 25.1612 82.0795 23.4908 82.7955C21.8203 83.5114 20.5227 84.4808 19.598 85.7038C18.6733 86.897 18.2109 88.3885 18.2109 90.1783C18.2109 92.7734 19.1506 94.7571 21.0298 96.1293C22.9389 97.4716 25.3551 98.1428 28.2784 98.1428Z" fill="#E4E4E4"/>
<path d="M118.495 80.7372V41.2727H137.556V110H119.255V97.5163H118.539C116.988 101.543 114.408 104.78 110.799 107.226C107.219 109.672 102.849 110.895 97.6885 110.895C93.0947 110.895 89.0528 109.851 85.5628 107.763C82.0727 105.675 79.3433 102.707 77.3746 98.8587C75.4356 95.0107 74.4513 90.402 74.4214 85.0327V41.2727H93.4825V81.6321C93.5123 85.6889 94.6011 88.8956 96.7488 91.2521C98.8966 93.6087 101.775 94.7869 105.385 94.7869C107.681 94.7869 109.829 94.2649 111.828 93.2209C113.826 92.147 115.437 90.5661 116.66 88.478C117.913 86.3899 118.524 83.8097 118.495 80.7372Z" fill="#E4E4E4"/>
<path d="M187.468 41.2727V55.5909H146.08V41.2727H187.468ZM155.476 24.8068H174.537V88.8807C174.537 90.6406 174.806 92.0128 175.343 92.9972C175.88 93.9517 176.625 94.6229 177.58 95.0107C178.564 95.3984 179.698 95.5923 180.98 95.5923C181.875 95.5923 182.77 95.5178 183.665 95.3686C184.56 95.1896 185.246 95.0554 185.723 94.9659L188.721 109.15C187.767 109.448 186.424 109.791 184.694 110.179C182.964 110.597 180.861 110.85 178.385 110.94C173.792 111.119 169.765 110.507 166.304 109.105C162.874 107.703 160.204 105.526 158.295 102.572C156.386 99.6193 155.446 95.8906 155.476 91.3864V24.8068Z" fill="#E4E4E4"/>
<path d="M228.309 111.342C221.359 111.342 215.348 109.866 210.277 106.913C205.236 103.93 201.343 99.7834 198.599 94.4737C195.855 89.1342 194.483 82.9446 194.483 75.9048C194.483 68.8054 195.855 62.6008 198.599 57.2912C201.343 51.9517 205.236 47.8054 210.277 44.8523C215.348 41.8693 221.359 40.3778 228.309 40.3778C235.26 40.3778 241.255 41.8693 246.296 44.8523C251.367 47.8054 255.275 51.9517 258.019 57.2912C260.764 62.6008 262.136 68.8054 262.136 75.9048C262.136 82.9446 260.764 89.1342 258.019 94.4737C255.275 99.7834 251.367 103.93 246.296 106.913C241.255 109.866 235.26 111.342 228.309 111.342ZM228.399 96.5767C231.561 96.5767 234.201 95.6818 236.318 93.892C238.436 92.0724 240.032 89.5966 241.106 86.4645C242.21 83.3324 242.762 79.7678 242.762 75.7706C242.762 71.7734 242.21 68.2088 241.106 65.0767C240.032 61.9446 238.436 59.4687 236.318 57.6491C234.201 55.8295 231.561 54.9197 228.399 54.9197C225.207 54.9197 222.522 55.8295 220.345 57.6491C218.197 59.4687 216.571 61.9446 215.468 65.0767C214.394 68.2088 213.857 71.7734 213.857 75.7706C213.857 79.7678 214.394 83.3324 215.468 86.4645C216.571 89.5966 218.197 92.0724 220.345 93.892C222.522 95.6818 225.207 96.5767 228.399 96.5767Z" fill="#E4E4E4"/>
<path d="M272.64 110V41.2727H290.806V53.3984H291.612C293.044 49.3714 295.43 46.1946 298.771 43.8679C302.112 41.5412 306.109 40.3778 310.762 40.3778C315.475 40.3778 319.487 41.5561 322.798 43.9126C326.11 46.2393 328.317 49.4013 329.421 53.3984H330.137C331.539 49.4609 334.074 46.3139 337.743 43.9574C341.442 41.571 345.812 40.3778 350.853 40.3778C357.267 40.3778 362.472 42.4212 366.469 46.5078C370.496 50.5646 372.509 56.3217 372.509 63.7791V110H353.493V67.5376C353.493 63.7195 352.479 60.8558 350.45 58.9467C348.422 57.0376 345.887 56.0831 342.844 56.0831C339.384 56.0831 336.684 57.1868 334.745 59.3942C332.806 61.5717 331.837 64.4503 331.837 68.0298V110H313.357V67.1349C313.357 63.7642 312.388 61.0795 310.449 59.081C308.54 57.0824 306.019 56.0831 302.887 56.0831C300.769 56.0831 298.86 56.62 297.16 57.6939C295.49 58.7379 294.162 60.2145 293.178 62.1236C292.193 64.0028 291.701 66.2102 291.701 68.7457V110H272.64Z" fill="#E4E4E4"/>
<path d="M405.274 111.298C400.889 111.298 396.981 110.537 393.551 109.016C390.12 107.464 387.406 105.183 385.407 102.17C383.439 99.1271 382.454 95.3388 382.454 90.8047C382.454 86.9865 383.155 83.7798 384.557 81.1847C385.959 78.5895 387.868 76.5014 390.285 74.9205C392.701 73.3395 395.445 72.1463 398.517 71.3409C401.62 70.5355 404.871 69.9688 408.272 69.6406C412.269 69.223 415.491 68.8352 417.937 68.4773C420.383 68.0895 422.157 67.5227 423.261 66.777C424.365 66.0312 424.917 64.9276 424.917 63.4659V63.1974C424.917 60.3636 424.022 58.1712 422.232 56.62C420.472 55.0689 417.966 54.2933 414.715 54.2933C411.285 54.2933 408.555 55.054 406.527 56.5753C404.498 58.0668 403.156 59.946 402.5 62.2131L384.87 60.7812C385.765 56.6051 387.525 52.9957 390.15 49.9531C392.775 46.8807 396.161 44.5241 400.307 42.8835C404.483 41.2131 409.316 40.3778 414.804 40.3778C418.623 40.3778 422.277 40.8253 425.767 41.7202C429.287 42.6151 432.404 44.0021 435.118 45.8814C437.863 47.7607 440.025 50.1768 441.606 53.13C443.187 56.0533 443.978 59.5582 443.978 63.6449V110H425.901V100.469H425.364C424.26 102.617 422.784 104.511 420.934 106.152C419.085 107.763 416.863 109.031 414.267 109.955C411.672 110.85 408.674 111.298 405.274 111.298ZM410.733 98.1428C413.537 98.1428 416.013 97.5909 418.16 96.4872C420.308 95.3537 421.993 93.8324 423.216 91.9233C424.439 90.0142 425.051 87.8516 425.051 85.4354V78.142C424.454 78.5298 423.634 78.8878 422.59 79.2159C421.576 79.5142 420.427 79.7976 419.145 80.066C417.862 80.3047 416.579 80.5284 415.297 80.7372C414.014 80.9162 412.851 81.0803 411.807 81.2294C409.569 81.5575 407.615 82.0795 405.945 82.7955C404.275 83.5114 402.977 84.4808 402.052 85.7038C401.128 86.897 400.665 88.3885 400.665 90.1783C400.665 92.7734 401.605 94.7571 403.484 96.1293C405.393 97.4716 407.809 98.1428 410.733 98.1428Z" fill="#E4E4E4"/>
<path d="M493.432 41.2727V55.5909H452.043V41.2727H493.432ZM461.44 24.8068H480.501V88.8807C480.501 90.6406 480.769 92.0128 481.306 92.9972C481.843 93.9517 482.589 94.6229 483.543 95.0107C484.528 95.3984 485.661 95.5923 486.944 95.5923C487.839 95.5923 488.734 95.5178 489.629 95.3686C490.523 95.1896 491.21 95.0554 491.687 94.9659L494.685 109.15C493.73 109.448 492.388 109.791 490.658 110.179C488.928 110.597 486.825 110.85 484.349 110.94C479.755 111.119 475.728 110.507 472.268 109.105C468.837 107.703 466.168 105.526 464.259 102.572C462.349 99.6193 461.41 95.8906 461.44 91.3864V24.8068Z" fill="#E4E4E4"/>
<path d="M534.541 111.342C527.472 111.342 521.386 109.911 516.285 107.047C511.214 104.153 507.307 100.067 504.562 94.7869C501.818 89.4773 500.446 83.1982 500.446 75.9496C500.446 68.88 501.818 62.6754 504.562 57.3359C507.307 51.9964 511.17 47.8352 516.151 44.8523C521.163 41.8693 527.039 40.3778 533.78 40.3778C538.315 40.3778 542.535 41.1087 546.443 42.5703C550.381 44.0021 553.811 46.1648 556.734 49.0582C559.687 51.9517 561.984 55.5909 563.625 59.9758C565.266 64.331 566.086 69.4318 566.086 75.2784V80.5135H508.052V68.701H548.143C548.143 65.9567 547.547 63.5256 546.354 61.4077C545.16 59.2898 543.505 57.6342 541.387 56.4411C539.299 55.218 536.868 54.6065 534.094 54.6065C531.2 54.6065 528.635 55.2777 526.398 56.62C524.19 57.9325 522.46 59.7074 521.207 61.9446C519.954 64.152 519.313 66.6129 519.283 69.3274V80.5582C519.283 83.9588 519.91 86.897 521.163 89.3729C522.445 91.8487 524.25 93.7578 526.577 95.1001C528.903 96.4425 531.663 97.1136 534.854 97.1136C536.972 97.1136 538.911 96.8153 540.671 96.2188C542.431 95.6222 543.937 94.7273 545.19 93.5341C546.443 92.3409 547.398 90.8793 548.054 89.1491L565.683 90.3125C564.788 94.5483 562.954 98.2472 560.18 101.409C557.435 104.541 553.886 106.987 549.53 108.747C545.205 110.477 540.209 111.342 534.541 111.342Z" fill="#E4E4E4"/>
<path d="M580.854 93.892V78.6342L619.11 18.3636H632.265V39.483H624.479L600.362 77.6499V78.3658H654.727V93.892H580.854ZM624.837 110V89.2386L625.195 82.4822V18.3636H643.362V110H624.837Z" fill="#11CE7B"/>
<path d="M708.108 80.7372V41.2727H727.169V110H708.868V97.5163H708.152C706.601 101.543 704.021 104.78 700.411 107.226C696.832 109.672 692.462 110.895 687.301 110.895C682.708 110.895 678.666 109.851 675.176 107.763C671.686 105.675 668.956 102.707 666.987 98.8587C665.049 95.0107 664.064 90.402 664.034 85.0327V41.2727H683.095V81.6321C683.125 85.6889 684.214 88.8956 686.362 91.2521C688.509 93.6087 691.388 94.7869 694.997 94.7869C697.294 94.7869 699.442 94.2649 701.441 93.2209C703.439 92.147 705.05 90.5661 706.273 88.478C707.526 86.3899 708.137 83.8097 708.108 80.7372Z" fill="#11CE7B"/>
<path d="M842.423 12.1976C836.852 6.50023 837.852 8.42938e-08 842.423 8.42938e-08L881.173 0C889.852 0.00019219 896.351 7.00031 901.851 12.1976L954.853 65.2306C956.848 67.2257 957.821 69.8541 957.778 72.4688C957.821 75.0834 956.848 77.7118 954.853 79.707L901.851 132.74C896.351 137.937 889.852 144.937 881.173 144.938H842.423C837.852 144.938 836.852 138.437 842.423 132.74L901.923 73.2397C901.923 73.2397 902.31 72.8482 902.31 72.5C902.31 72.1518 901.923 71.6978 901.923 71.6978L842.423 12.1976Z" fill="#11CE7B"/>
<path d="M745.423 12.1976C739.852 6.50023 740.852 8.42938e-08 745.423 8.42938e-08L784.173 0C792.852 0.00019219 799.351 7.00031 804.851 12.1976L857.853 65.2306C859.848 67.2257 860.821 69.8541 860.778 72.4688C860.821 75.0834 859.848 77.7118 857.853 79.707L804.851 132.74C799.351 137.937 792.852 144.937 784.173 144.938H745.423C740.852 144.938 739.852 138.437 745.423 132.74L804.923 73.2397C804.923 73.2397 805.31 72.8482 805.31 72.5C805.31 72.1518 804.923 71.6978 804.923 71.6978L745.423 12.1976Z" fill="#E4E4E4"/>
</g>
<defs>
<clipPath id="clip0_1_2">
<rect width="958" height="145" fill="white"/>
</clipPath>
</defs>
</svg>
